PathFileType	4	(X/Y/Z)	./resultDataOpenSim/trcMotMarkerGrf/sub06/qtm-14-08.trc
DataRate	CameraRate	NumFrames	NumMarkers	Units	OrigDataRate	OrigDataStartFrame	OrigNumFrames
250.000000	250.000000	13	24	m	250.000000	462	527
Frame#	Time	L.Toe.Tip			R.Toe.Tip			L.Ankle.Lat			R.Ankle.Lat			L.Ankle.Med			R.Ankle.Med			L.Heel			R.Heel			L.Knee.Lat			R.Knee.Lat			L.Knee.Med			R.Knee.Med			L.Thigh.Upper			R.Thigh.Upper			L.ASIS			R.ASIS			V.Sacral			L.Acromium			R.Acromium			C7			L.Elbow			R.Elbow			L.Wrist.Lat			R.Wrist.Lat
		X1	Y1	Z1	X2	Y2	Z2	X3	Y3	Z3	X4	Y4	Z4	X5	Y5	Z5	X6	Y6	Z6	X7	Y7	Z7	X8	Y8	Z8	X9	Y9	Z9	X10	Y10	Z10	X11	Y11	Z11	X12	Y12	Z12	X13	Y13	Z13	X14	Y14	Z14	X15	Y15	Z15	X16	Y16	Z16	X17	Y17	Z17	X18	Y18	Z18	X19	Y19	Z19	X20	Y20	Z20	X21	Y21	Z21	X22	Y22	Z22	X23	Y23	Z23	X24	Y24	Z24

462	1.844	1.6622587	0.033862949	-0.074418314	1.2636728	0.082696989	0.11056252	1.5389721	0.066746231	-0.10377134	1.2288626	0.21952369	0.11523117	1.5378911	0.08193503	-0.017064591	1.2756035	0.2052414	0.040672966	1.4608281	0.040455977	-0.063744	1.1980471	0.24706691	0.046056057	1.623212	0.43353975	-0.11688388	1.5429376	0.4265262	0.17106413	1.5843237	0.43290052	-0.0011901895	1.5602562	0.39806337	0.038818569	1.5280195	0.81866262	-0.19307882	1.446201	0.77996943	0.1407979	1.5876531	0.86236712	-0.13452078	1.5534719	0.84298807	0.11123389	1.3849517	0.92378799	-0.029570634	1.5062509	1.328395	-0.20731836	1.4777248	1.3249181	0.15435059	1.4151654	1.3654493	-0.033661038	1.4369374	1.0183728	-0.25504385	1.4549366	1.0028873	0.22558471	1.5563466	0.8060956	-0.28904762	1.6707973	0.8816763	0.20582487
463	1.848	1.6622498	0.033875071	-0.074429657	1.2800388	0.082577422	0.11284197	1.5389558	0.06688568	-0.10375805	1.2422601	0.21845795	0.11539946	1.5379663	0.082050794	-0.017051391	1.2891218	0.20425653	0.04084741	1.4608356	0.040606069	-0.063632488	1.209942	0.24435809	0.04703022	1.6240244	0.43356947	-0.11667093	1.5532761	0.42945218	0.17130648	1.5851232	0.43308707	-0.001008029	1.5718455	0.40080758	0.03918617	1.5324795	0.81933506	-0.19320815	1.4521179	0.78194167	0.14070464	1.5926044	0.86348949	-0.13519287	1.5590621	0.84508866	0.11079902	1.3897957	0.92536063	-0.03011454	1.5118565	1.3302287	-0.20733082	1.4817349	1.3266088	0.15436936	1.4205835	1.3669418	-0.033732198	1.4447475	1.0192893	-0.25559555	1.4570858	1.0045472	0.22451473	1.5681299	0.80875422	-0.28770426	1.6704367	0.87857131	0.2070517
464	1.852	1.6622375	0.033879581	-0.074451358	1.2964834	0.08234324	0.11506549	1.5389386	0.067022424	-0.10373058	1.2555934	0.21712631	0.11558941	1.5380424	0.082177696	-0.017049489	1.3028568	0.20306469	0.041217564	1.4608401	0.040757033	-0.063527292	1.222612	0.24162226	0.047036539	1.6247627	0.43359584	-0.11648382	1.5635477	0.4323877	0.17153152	1.5859506	0.43327986	-0.00085570996	1.5834726	0.40369362	0.039511108	1.5371007	0.82005968	-0.19333803	1.4567091	0.78431727	0.14113567	1.5975407	0.86462104	-0.13585414	1.5647137	0.84719832	0.11031258	1.393912	0.92709053	-0.030443595	1.5174927	1.3320795	-0.20734916	1.4859437	1.3282669	0.15439159	1.4259974	1.3683992	-0.033790547	1.4525472	1.0202275	-0.25615524	1.4593447	1.0062617	0.22346437	1.5801322	0.81151141	-0.28630428	1.6699435	0.87555795	0.20831603
465	1.856	1.6622199	0.033878173	-0.074479389	1.3130563	0.082001892	0.11723401	1.5389098	0.067150342	-0.10369134	1.2689672	0.21553172	0.11581509	1.5381033	0.082326421	-0.017054625	1.3167558	0.20168563	0.041716581	1.4608408	0.040912527	-0.063416535	1.2359944	0.23878566	0.046191711	1.6254432	0.43362508	-0.1163089	1.5737363	0.43532249	0.17174715	1.5867704	0.43348376	-0.00073219316	1.5950254	0.40673521	0.03981402	1.5417076	0.82084416	-0.19347713	1.4605236	0.78690842	0.14196156	1.6024549	0.86575024	-0.13648587	1.5703598	0.84931026	0.10980391	1.397708	0.92887596	-0.030530912	1.5231239	1.333925	-0.20735291	1.4907124	1.3298066	0.15439795	1.4314075	1.3698237	-0.033837808	1.4603277	1.0211821	-0.25671256	1.4615912	1.0080022	0.22244128	1.5923191	0.81437463	-0.28485952	1.6693183	0.87263884	0.20961876
466	1.86	1.6621982	0.033874605	-0.074506171	1.3298448	0.081568975	0.11935379	1.5388654	0.06727375	-0.1036454	1.282446	0.21367658	0.11608417	1.5381214	0.082501013	-0.017059768	1.3307658	0.20014	0.042275979	1.4608422	0.041076914	-0.063302471	1.2497452	0.23573559	0.045008921	1.6260663	0.43365383	-0.11614248	1.5838308	0.43823865	0.17194534	1.5875615	0.4337027	-0.00063198308	1.6063423	0.40992341	0.040089725	1.5462048	0.82166071	-0.19359514	1.4648831	0.78937915	0.14291963	1.6073387	0.86687635	-0.1370757	1.5760051	0.85141693	0.10928383	1.4018026	0.93053915	-0.030512942	1.5287155	1.3357416	-0.2073263	1.4959545	1.3312106	0.1543803	1.4368155	1.3712214	-0.033879249	1.4680851	1.0221533	-0.25725888	1.4637674	1.0097229	0.22145692	1.6044613	0.81735421	-0.28340666	1.6685688	0.86981209	0.2109626
467	1.864	1.6621762	0.033872558	-0.074525026	1.346881	0.081053089	0.12141225	1.5388101	0.067401805	-0.10359831	1.2960378	0.21156862	0.11638965	1.5380301	0.082678973	-0.017058921	1.3448594	0.19844556	0.042852974	1.4608502	0.04125618	-0.063195942	1.2635567	0.23241934	0.043952126	1.6266176	0.43367137	-0.11599333	1.593831	0.44112113	0.17211739	1.588302	0.43393484	-0.00055161209	1.6170874	0.41321935	0.040331261	1.5506974	0.82247354	-0.19366321	1.4713801	0.79136926	0.14373028	1.6121968	0.86800288	-0.13761836	1.5816672	0.85351222	0.108756	1.406509	0.93198079	-0.030516937	1.5342675	1.3375284	-0.2072738	1.5013336	1.3325122	0.15433441	1.4422213	1.3725903	-0.033925944	1.4758262	1.0231429	-0.25780338	1.4659523	1.011414	0.22050766	1.616341	0.820455	-0.281976	1.6677032	0.8670796	0.21234964
468	1.868	1.6621582	0.033873457	-0.074533537	1.3641673	0.080463927	0.12338493	1.5387541	0.067542702	-0.10355579	1.309727	0.20922754	0.11671657	1.5377397	0.08281108	-0.017047685	1.3590276	0.19661157	0.043431498	1.4608674	0.04146117	-0.063106423	1.2772734	0.22883083	0.043275827	1.6270883	0.43367064	-0.11587106	1.6037491	0.44396595	0.17225933	1.588959	0.43416915	-0.00048720545	1.6271152	0.41657731	0.040547027	1.5552975	0.823264	-0.19368126	1.4807366	0.79274308	0.14420764	1.6170489	0.86912785	-0.13811434	1.5873291	0.85559128	0.10821545	1.4116871	0.93323216	-0.030558112	1.5398083	1.3393075	-0.20721337	1.506618	1.3337501	0.15425821	1.447621	1.3739188	-0.033987192	1.4835575	1.0241529	-0.25836219	1.4682796	1.0131093	0.21958044	1.6279436	0.82367141	-0.28056807	1.6667242	0.86445187	0.21377678
469	1.872	1.6621477	0.033875866	-0.074533023	1.381782	0.079827591	0.12526508	1.538709	0.067700133	-0.10352286	1.3235287	0.20667627	0.11706662	1.5372597	0.082871737	-0.017024898	1.3732643	0.19463814	0.044014519	1.4608922	0.041703099	-0.063036123	1.2908864	0.22498403	0.043012141	1.6274863	0.43365206	-0.11577837	1.6136016	0.44677699	0.17236602	1.5894832	0.43438314	-0.00042267936	1.6367195	0.41997068	0.040746302	1.55998	0.82402288	-0.19366765	1.4919473	0.79377561	0.14434249	1.6219116	0.87024327	-0.13856759	1.5929023	0.85765436	0.10764304	1.417034	0.93437074	-0.030590875	1.5453689	1.3411065	-0.20716093	1.5117662	1.3349489	0.15415546	1.4530094	1.3751935	-0.034065737	1.4912756	1.0251836	-0.25894035	1.4708676	1.0148308	0.2186723	1.6393854	0.82699173	-0.27916682	1.6656374	0.86193768	0.21523321
470	1.876	1.6621476	0.033877011	-0.074526684	1.3997879	0.07916642	0.12706749	1.5386818	0.067871151	-0.10350179	1.3375328	0.20392159	0.11748098	1.5367769	0.082904087	-0.016995688	1.3875716	0.19252797	0.044611546	1.4609233	0.04198028	-0.062978624	1.3044715	0.22090474	0.043048965	1.627834	0.43361978	-0.11571258	1.6233877	0.44955698	0.17243188	1.5898379	0.43456621	-0.00033333316	1.6462397	0.42338678	0.040918456	1.5646274	0.82473651	-0.19364713	1.5033766	0.79487023	0.14422331	1.6267766	0.87133961	-0.13898139	1.5982744	0.85970458	0.10701675	1.422365	0.9354554	-0.030581536	1.5509618	1.3429246	-0.20712138	1.5168243	1.3361152	0.1540333	1.4583866	1.3764082	-0.034162133	1.4989807	1.0262271	-0.2595365	1.4736823	1.0165574	0.21779386	1.6507678	0.83040213	-0.2777603	1.6644609	0.85953542	0.21670595
471	1.88	1.6621584	0.03387474	-0.074518705	1.4180408	0.07846843	0.12881082	1.5386735	0.068048419	-0.10348934	1.3518784	0.20094951	0.11803051	1.5364543	0.082971741	-0.016969849	1.4019635	0.19029286	0.045225016	1.4609638	0.042273814	-0.062922736	1.3180995	0.21661852	0.043258177	1.6281612	0.43357795	-0.11566961	1.6330827	0.45230096	0.17245674	1.5900224	0.43475292	-0.0001977891	1.6557386	0.42682139	0.041032669	1.5691339	0.82539456	-0.19364192	1.5142181	0.79616391	0.14395798	1.6316164	0.87240498	-0.1393557	1.603449	0.86173552	0.1063432	1.4276691	0.93652383	-0.030529287	1.5565689	1.344711	-0.2070875	1.5218562	1.3372354	0.15390248	1.4637574	1.3775632	-0.034274491	1.5066879	1.027264	-0.26015437	1.4764208	1.0182451	0.21695402	1.6621343	0.83388863	-0.27634497	1.6632151	0.85723711	0.21818865
472	1.884	1.6621774	0.033868553	-0.074513338	1.4362653	0.077700335	0.13050666	1.538682	0.068226838	-0.10347618	1.3666215	0.19776032	0.11875236	1.5362022	0.083083004	-0.016955755	1.4164534	0.18794808	0.045844764	1.4610162	0.0425636	-0.062858093	1.3317832	0.21213891	0.043570129	1.6284944	0.4335307	-0.11564656	1.642669	0.45499339	0.17244359	1.5900377	0.43500916	3.0253023e-06	1.6651345	0.43028148	0.041051278	1.5735572	0.82600359	-0.19364412	1.5241407	0.79759771	0.14374099	1.6364178	0.87342548	-0.13969042	1.6086101	0.86372823	0.10567132	1.4330349	0.93757871	-0.030456085	1.5621608	1.3464028	-0.20704688	1.5269312	1.3382843	0.1537772	1.4691249	1.3786586	-0.03438933	1.5144054	1.0282746	-0.26078797	1.4787384	1.0198536	0.21615295	1.6734874	0.83744023	-0.27492229	1.661908	0.85503756	0.21968305
473	1.888	1.6622021	0.033859708	-0.074512704	1.4542668	0.076840333	0.13215354	1.538705	0.068407577	-0.10345045	1.3816066	0.1944037	0.11958514	1.5358399	0.083211905	-0.016956163	1.4310428	0.18550892	0.046452309	1.4610762	0.042844936	-0.062776557	1.3454996	0.2074725	0.04396763	1.6288462	0.43348392	-0.11564218	1.6521595	0.45761146	0.17239305	1.5899132	0.43536717	0.00026919797	1.6743668	0.43375733	0.040943628	1.5781551	0.82657755	-0.19360551	1.5327746	0.79915977	0.14379904	1.6412103	0.8743939	-0.13998713	1.6139691	0.86566385	0.10505628	1.4385345	0.93857679	-0.030389015	1.5677321	1.3479819	-0.20699241	1.5321048	1.3392436	0.15366786	1.4744918	1.3796921	-0.03448185	1.5221172	1.029254	-0.26141079	1.4806196	1.0213652	0.21539161	1.6848177	0.84104829	-0.27349534	1.6605398	0.85293879	0.22118947
474	1.892	1.6622302	0.033850378	-0.074515292	1.471949	0.075884504	0.13373447	1.538741	0.068596221	-0.10340482	1.3965788	0.19094377	0.12041121	1.5354212	0.083363736	-0.016964795	1.4457196	0.18299046	0.047025131	1.4611354	0.043127203	-0.062671265	1.3592926	0.20263557	0.044454148	1.6292095	0.43344471	-0.11565589	1.6615705	0.46013999	0.17230203	1.5898056	0.43578285	0.00054913203	1.6834135	0.43718926	0.040714621	1.5830771	0.82711499	-0.1934984	1.5401193	0.80088918	0.14421663	1.646081	0.87531477	-0.14023949	1.6195836	0.86753117	0.10451688	1.4441509	0.93948582	-0.030344037	1.5733009	1.3494725	-0.20692675	1.5374023	1.3401102	0.15357902	1.4798603	1.3806589	-0.034536421	1.5298019	1.0302079	-0.26200201	1.4823659	1.0227851	0.21467734	1.6961234	0.84470522	-0.27206583	1.6591157	0.85094495	0.2226985
